<?xml version="1.0" standalone="no"?>
<!DOCTYPE svg PUBLIC "-//W3C//DTD SVG 20010904//EN"
 "http://www.w3.org/TR/2001/REC-SVG-20010904/DTD/svg10.dtd">
<svg version="1.0" xmlns="http://www.w3.org/2000/svg"
 width="421.000000pt" height="421.000000pt" viewBox="0 0 421.000000 421.000000"
 preserveAspectRatio="xMidYMid meet">
<metadata>
Created by potrace 1.14, written by Peter Selinger 2001-2017
</metadata>
<g transform="translate(0.000000,421.000000) scale(0.100000,-0.100000)"
fill="#000000" stroke="none">
<path d="M2128 3685 c-2 -2 -19 -7 -38 -10 -59 -10 -179 -66 -238 -110 -49
-37 -99 -97 -90 -108 2 -2 -5 -11 -15 -21 -9 -10 -15 -22 -12 -27 4 -5 2 -9
-4 -9 -6 0 -13 -11 -17 -24 -8 -32 -39 -39 -92 -20 -24 8 -48 11 -54 8 -6 -4
-8 -2 -5 3 7 12 -156 11 -202 -1 -54 -13 -91 -28 -91 -37 0 -6 -4 -8 -9 -5
-12 8 -102 -80 -127 -124 -24 -42 -56 -124 -53 -136 1 -5 -1 -16 -4 -24 -7
-16 -36 -99 -41 -115 -7 -25 -31 -78 -82 -185 -31 -63 -63 -131 -72 -150 -9
-19 -23 -41 -30 -48 -7 -8 -10 -18 -7 -23 4 -5 2 -9 -3 -9 -10 0 -131 -236
-135 -265 -1 -11 -6 -25 -10 -32 -8 -12 -10 -124 -4 -153 2 -8 7 -31 11 -50 4
-19 11 -44 16 -55 17 -42 52 -135 53 -142 0 -4 6 -19 13 -32 7 -13 11 -32 9
-42 -2 -11 -1 -19 3 -19 10 0 6 -60 -6 -91 -6 -15 -9 -29 -7 -31 12 -12 -44
-58 -75 -62 -54 -7 -67 -15 -65 -39 18 -164 164 -258 349 -224 38 6 59 5 92
-8 24 -9 48 -14 54 -10 5 3 10 2 10 -3 0 -14 89 -29 162 -26 68 2 124 22 153
54 16 18 19 16 71 -37 30 -31 54 -60 54 -65 0 -4 4 -8 9 -8 6 0 34 -22 62 -49
29 -28 56 -48 60 -45 4 2 9 -3 12 -10 10 -27 247 -169 247 -149 0 5 4 2 9 -5
4 -7 24 -14 44 -15 20 -1 37 -5 37 -8 0 -6 81 -3 117 5 12 2 31 10 43 16 11 6
25 8 30 5 6 -3 10 -1 10 4 0 6 9 11 19 11 11 0 26 6 33 13 7 7 15 14 18 14 20
1 63 21 108 49 28 19 52 31 52 28 0 -3 7 1 15 8 35 32 50 43 57 43 8 0 55 37
93 73 14 13 25 21 25 18 0 -3 16 11 36 32 26 27 45 37 72 39 60 4 155 28 177
44 6 4 30 -2 55 -13 31 -14 70 -22 125 -23 44 -2 80 -4 80 -5 0 -13 144 -14
179 0 14 5 26 8 26 5 0 -10 118 44 138 63 7 6 17 12 22 12 12 0 70 57 70 69 0
6 4 11 8 11 16 0 12 58 -4 64 -8 3 -13 10 -10 15 3 5 -1 14 -9 21 -14 12 -37
11 -133 -4 -32 -5 -71 55 -76 115 -4 52 11 148 26 167 6 6 8 12 4 12 -3 0 0
15 8 34 25 59 47 182 37 201 -3 6 -7 19 -9 30 -2 11 -5 25 -6 31 -6 32 -51 82
-159 178 -64 55 -97 116 -103 190 -2 28 -6 67 -9 86 -2 19 -7 60 -9 90 -6 61
-15 145 -19 172 -2 10 -6 21 -10 24 -4 4 -7 15 -7 24 0 46 -88 211 -137 257
-12 12 -23 24 -23 27 0 8 -72 76 -81 76 -5 0 -9 4 -9 9 0 4 -28 28 -62 52 -35
24 -63 42 -63 40 0 -3 -21 15 -47 40 -81 77 -122 114 -168 149 -24 19 -53 43
-64 53 -11 9 -26 17 -33 17 -7 0 -13 5 -13 10 0 6 -7 10 -15 10 -8 0 -15 5
-15 10 0 6 -9 10 -20 10 -11 0 -20 5 -20 10 0 6 -7 10 -15 10 -9 0 -27 7 -40
16 -14 9 -25 14 -25 11 0 -3 -15 -1 -32 5 -32 10 -173 20 -180 13z"/>
</g>
</svg>
